<svg width="640" height="480" xmlns="http://www.w3.org/2000/svg" xmlns:svg="http://www.w3.org/2000/svg" style="vector-effect: non-scaling-stroke;">
 <!-- Created with SVG-edit - https://github.com/SVG-Edit/svgedit-->
 <g class="layer">
  <title>Layer 1</title>
  <circle cx="297.1" cy="276.5" fill="#000000" fill-opacity="0" id="svg_2" r="120.06665" stroke="#3c334a" stroke-width="7"/>
  <path d="m298.1,156.5c0,0 2,240 1.9,239.5c-0.1,-0.5 -1.9,-239.5 -1.9,-239.5z" fill="#FF0000" id="svg_7" stroke="#3c334a" stroke-dasharray="null" stroke-linecap="null" stroke-linejoin="null" stroke-width="7"/>
  <path d="m297.1,157.5c-0.03333,3.16667 -62.1,20.16667 -60.1,115.5c2,95.33333 62,124.66667 63,124c1,-0.66667 58.96667,-29.5 58,-123c-0.96667,-93.5 -60.86667,-119.66667 -60.9,-116.5z" fill="#000000" fill-opacity="0" id="svg_9" stroke="#3c334a" stroke-dasharray="null" stroke-linecap="null" stroke-width="7"/>
  <line fill="none" id="svg_10" stroke="#3c334a" stroke-dasharray="null" stroke-linecap="null" stroke-linejoin="null" stroke-width="7" x1="202.1" x2="391.1" y1="202.5" y2="202.5"/>
  <line fill="none" id="svg_11" stroke="#3c334a" stroke-dasharray="null" stroke-linecap="null" stroke-linejoin="null" stroke-width="7" x1="176.1" x2="416.10833" y1="283.5" y2="283.5"/>
  <line fill="none" id="svg_12" stroke="#3c334a" stroke-dasharray="null" stroke-linecap="null" stroke-linejoin="null" stroke-width="7" x1="216.1" x2="376.1125" y1="365.5" y2="365.5"/>
  <circle cx="161.1" cy="136" fill="#3c334a" id="svg_13" r="74.53333" stroke="#3c334a" stroke-dasharray="null" stroke-linecap="null" stroke-linejoin="null" stroke-width="7"/>
  <circle cx="433.6" cy="137" fill="#3c334a" id="svg_14" r="74.53333" stroke="#3c334a" stroke-dasharray="null" stroke-linecap="null" stroke-linejoin="null" stroke-width="7"/>
 </g>
</svg>
